<?xml version="1.0" encoding="UTF-8"?><svg id="Layer_1" xmlns="http://www.w3.org/2000/svg" xmlns:xlink="http://www.w3.org/1999/xlink" viewBox="0 0 13.78 23.4"><defs><style>.cls-1,.cls-2{fill:none;}.cls-3{fill:#d5262d;}.cls-2{clip-path:url(#clippath);}</style><clipPath id="clippath"><rect class="cls-1" width="42.43" height="72.03"/></clipPath></defs><g class="cls-2"><path class="cls-3" d="m1.45-.99C1.45-2.35.34-3.45-1.02-3.45S-3.48-2.35-3.48-.99-2.37,1.47-1.02,1.47,1.45.36,1.45-.99h0Zm-.2,0h0C1.25.25.23,1.27-1.02,1.27S-3.28.25-3.28-.99s1.01-2.26,2.26-2.26S1.25-2.24,1.25-.99Z"/><path class="cls-3" d="m-.95,1.42L1.39-.92s.04-.1,0-.14L-.95-3.4s-.1-.04-.14,0L-3.43-1.06s-.04.1,0,.14L-1.09,1.42s.04.03.07.03.05,0,.07-.03h0Zm-.07-4.61h0L1.18-.99-1.02,1.21-3.22-.99-1.02-3.19Z"/><path class="cls-3" d="m6.39-.99c0-1.36-1.1-2.46-2.46-2.46S1.46-2.35,1.46-.99,2.57,1.47,3.92,1.47,6.39.36,6.39-.99h0Zm-.2,0h0c0,1.25-1.01,2.26-2.26,2.26S1.66.25,1.66-.99s1.01-2.26,2.26-2.26,2.26,1.01,2.26,2.26Z"/><path class="cls-3" d="m3.99,1.42L6.33-.92s.04-.1,0-.14l-2.34-2.34s-.1-.04-.14,0L1.51-1.06s-.04.1,0,.14L3.85,1.42s.04.03.07.03.05,0,.07-.03h0Zm-.07-4.61h0L6.12-.99,3.92,1.21,1.72-.99l2.2-2.2Z"/><path class="cls-3" d="m3.92,1.27c-.05,0-.1-.04-.1-.1V-.14c0-.05.04-.1.1-.1s.1.04.1.1v1.31c0,.05-.04.1-.1.1Z"/><path class="cls-3" d="m11.32-.99c0-1.36-1.1-2.46-2.46-2.46s-2.46,1.1-2.46,2.46,1.1,2.46,2.46,2.46,2.46-1.1,2.46-2.46h0Zm-.2,0h0c0,1.25-1.01,2.26-2.26,2.26S6.6.25,6.6-.99s1.01-2.26,2.26-2.26,2.26,1.01,2.26,2.26Z"/><path class="cls-3" d="m8.93,1.42l2.34-2.34s.04-.1,0-.14l-2.34-2.34s-.1-.04-.14,0l-2.34,2.34s-.04.1,0,.14l2.34,2.34s.04.03.07.03.05,0,.07-.03h0Zm-.07-4.61h0l2.2,2.2-2.2,2.2L6.66-.99l2.2-2.2Z"/><path class="cls-3" d="m8.86,1.27c-.05,0-.1-.04-.1-.1V-.14c0-.05.04-.1.1-.1s.1.04.1.1v1.31c0,.05-.04.1-.1.1Z"/><path class="cls-3" d="m16.26-.99c0-1.36-1.1-2.46-2.46-2.46s-2.46,1.1-2.46,2.46,1.1,2.46,2.46,2.46,2.46-1.1,2.46-2.46h0Zm-.2,0h0c0,1.25-1.01,2.26-2.26,2.26s-2.26-1.01-2.26-2.26,1.01-2.26,2.26-2.26,2.26,1.01,2.26,2.26Z"/><path class="cls-3" d="m13.87,1.42l2.34-2.34s.04-.1,0-.14l-2.34-2.34s-.1-.04-.14,0l-2.34,2.34s-.04.1,0,.14l2.34,2.34s.04.03.07.03.05,0,.07-.03h0Zm-.07-4.61h0l2.2,2.2-2.2,2.2-2.2-2.2,2.2-2.2Z"/><path class="cls-3" d="m13.8,1.27c-.05,0-.1-.04-.1-.1V-.14c0-.05.04-.1.1-.1s.1.04.1.1v1.31c0,.05-.04.1-.1.1Z"/><path class="cls-3" d="m1.45,3.94C1.45,2.59.34,1.48-1.02,1.48s-2.46,1.1-2.46,2.46,1.1,2.46,2.46,2.46,2.46-1.1,2.46-2.46h0Zm-.2,0h0c0,1.25-1.01,2.26-2.26,2.26s-2.26-1.01-2.26-2.26S-2.26,1.68-1.02,1.68,1.25,2.69,1.25,3.94Z"/><path class="cls-3" d="m-.95,6.35l2.34-2.34s.04-.1,0-.14L-.95,1.53s-.1-.04-.14,0l-2.34,2.34s-.04.1,0,.14l2.34,2.34s.04.03.07.03.05,0,.07-.03h0Zm-.07-4.61h0L1.18,3.94l-2.2,2.2-2.2-2.2L-1.02,1.74Z"/><path class="cls-3" d="m1.32,4.02H-.15c-.05,0-.1-.04-.1-.1s.04-.1.1-.1h1.47c.05,0,.1.04.1.1s-.04.1-.1.1Z"/><path class="cls-3" d="m6.39,3.94c0-1.36-1.1-2.46-2.46-2.46S1.46,2.59,1.46,3.94s1.1,2.46,2.46,2.46,2.46-1.1,2.46-2.46h0Zm-.2,0h0c0,1.25-1.01,2.26-2.26,2.26s-2.26-1.01-2.26-2.26S2.68,1.68,3.92,1.68s2.26,1.01,2.26,2.26Z"/><path class="cls-3" d="m3.99,6.35l2.34-2.34s.04-.1,0-.14L3.99,1.53s-.1-.04-.14,0L1.51,3.87s-.04.1,0,.14l2.34,2.34s.04.03.07.03.05,0,.07-.03h0Zm-.07-4.61h0l2.2,2.2-2.2,2.2L1.72,3.94,3.92,1.74Z"/><path class="cls-3" d="m3.99,4.87l.87-.87s.04-.1,0-.14l-.87-.87s-.04-.03-.07-.03-.05.01-.07.03l-.87.87s-.03.04-.03.07.01.05.03.07l.87.87s.04.03.07.03.05,0,.07-.03h0Zm-.07-1.68h0l.73.73-.73.73-.73-.73.73-.73Z"/><path class="cls-3" d="m3.92,3.15c-.05,0-.1-.04-.1-.1v-1.45c0-.05.04-.1.1-.1s.1.04.1.1v1.45c0,.05-.04.1-.1.1Z"/><path class="cls-3" d="m3.92,6.2c-.05,0-.1-.04-.1-.1v-1.31c0-.05.04-.1.1-.1s.1.04.1.1v1.31c0,.05-.04.1-.1.1Z"/><path class="cls-3" d="m6.26,4.02h-1.47c-.05,0-.1-.04-.1-.1s.04-.1.1-.1h1.47c.05,0,.1.04.1.1s-.04.1-.1.1Z"/><path class="cls-3" d="m3.05,4.02h-1.46c-.05,0-.1-.04-.1-.1s.04-.1.1-.1h1.46c.05,0,.1.04.1.1s-.04.1-.1.1Z"/><path class="cls-3" d="m11.32,3.94c0-1.36-1.1-2.46-2.46-2.46s-2.46,1.1-2.46,2.46,1.1,2.46,2.46,2.46,2.46-1.1,2.46-2.46h0Zm-.2,0h0c0,1.25-1.01,2.26-2.26,2.26s-2.26-1.01-2.26-2.26,1.01-2.26,2.26-2.26,2.26,1.01,2.26,2.26Z"/><path class="cls-3" d="m8.93,6.35l2.34-2.34s.04-.1,0-.14l-2.34-2.34s-.1-.04-.14,0l-2.34,2.34s-.04.1,0,.14l2.34,2.34s.04.03.07.03.05,0,.07-.03h0Zm-.07-4.61h0l2.2,2.2-2.2,2.2-2.2-2.2,2.2-2.2Z"/><path class="cls-3" d="m8.93,4.87l.87-.87s.04-.1,0-.14l-.87-.87s-.04-.03-.07-.03-.05.01-.07.03l-.87.87s-.03.04-.03.07.01.05.03.07l.87.87s.04.03.07.03.05,0,.07-.03h0Zm-.07-1.68h0l.73.73-.73.73-.73-.73.73-.73Z"/><path class="cls-3" d="m8.86,3.15c-.05,0-.1-.04-.1-.1v-1.45c0-.05.04-.1.1-.1s.1.04.1.1v1.45c0,.05-.04.1-.1.1Z"/><path class="cls-3" d="m8.86,6.2c-.05,0-.1-.04-.1-.1v-1.31c0-.05.04-.1.1-.1s.1.04.1.1v1.31c0,.05-.04.1-.1.1Z"/><path class="cls-3" d="m11.2,4.02h-1.47c-.05,0-.1-.04-.1-.1s.04-.1.1-.1h1.47c.05,0,.1.04.1.1s-.04.1-.1.1Z"/><path class="cls-3" d="m7.99,4.02h-1.46c-.05,0-.1-.04-.1-.1s.04-.1.1-.1h1.46c.05,0,.1.04.1.1s-.04.1-.1.1Z"/><path class="cls-3" d="m16.26,3.94c0-1.36-1.1-2.46-2.46-2.46s-2.46,1.1-2.46,2.46,1.1,2.46,2.46,2.46,2.46-1.1,2.46-2.46h0Zm-.2,0h0c0,1.25-1.01,2.26-2.26,2.26s-2.26-1.01-2.26-2.26,1.01-2.26,2.26-2.26,2.26,1.01,2.26,2.26Z"/><path class="cls-3" d="m13.87,6.35l2.34-2.34s.04-.1,0-.14l-2.34-2.34s-.1-.04-.14,0l-2.34,2.34s-.04.1,0,.14l2.34,2.34s.04.03.07.03.05,0,.07-.03h0Zm-.07-4.61h0l2.2,2.2-2.2,2.2-2.2-2.2,2.2-2.2Z"/><path class="cls-3" d="m13.87,4.87l.87-.87s.04-.1,0-.14l-.87-.87s-.04-.03-.07-.03-.05.01-.07.03l-.87.87s-.03.04-.03.07.01.05.03.07l.87.87s.04.03.07.03.05,0,.07-.03h0Zm-.07-1.68h0l.73.73-.73.73-.73-.73.73-.73Z"/><path class="cls-3" d="m13.8,3.15c-.05,0-.1-.04-.1-.1v-1.45c0-.05.04-.1.1-.1s.1.04.1.1v1.45c0,.05-.04.1-.1.1Z"/><path class="cls-3" d="m13.8,6.2c-.05,0-.1-.04-.1-.1v-1.31c0-.05.04-.1.1-.1s.1.04.1.1v1.31c0,.05-.04.1-.1.1Z"/><path class="cls-3" d="m12.93,4.02h-1.46c-.05,0-.1-.04-.1-.1s.04-.1.1-.1h1.46c.05,0,.1.04.1.1s-.04.1-.1.1Z"/><path class="cls-3" d="m1.45,8.88c0-1.36-1.1-2.46-2.46-2.46s-2.46,1.1-2.46,2.46,1.1,2.46,2.46,2.46,2.46-1.1,2.46-2.46h0Zm-.2,0h0c0,1.25-1.01,2.26-2.26,2.26s-2.26-1.01-2.26-2.26,1.01-2.26,2.26-2.26,2.26,1.01,2.26,2.26Z"/><path class="cls-3" d="m-.95,11.28l2.34-2.34s.04-.1,0-.14L-.95,6.47s-.1-.04-.14,0l-2.34,2.34s-.04.1,0,.14l2.34,2.34s.04.03.07.03.05,0,.07-.03h0Zm-.07-4.61h0l2.2,2.2-2.2,2.2-2.2-2.2,2.2-2.2Z"/><path class="cls-3" d="m1.32,8.96H-.15c-.05,0-.1-.04-.1-.1s.04-.1.1-.1h1.47c.05,0,.1.04.1.1s-.04.1-.1.1Z"/><path class="cls-3" d="m6.39,8.88c0-1.36-1.1-2.46-2.46-2.46s-2.46,1.1-2.46,2.46,1.1,2.46,2.46,2.46,2.46-1.1,2.46-2.46h0Zm-.2,0h0c0,1.25-1.01,2.26-2.26,2.26s-2.26-1.01-2.26-2.26,1.01-2.26,2.26-2.26,2.26,1.01,2.26,2.26Z"/><path class="cls-3" d="m3.99,11.28l2.34-2.34s.04-.1,0-.14l-2.34-2.34s-.1-.04-.14,0l-2.34,2.34s-.04.1,0,.14l2.34,2.34s.04.03.07.03.05,0,.07-.03h0Zm-.07-4.61h0l2.2,2.2-2.2,2.2-2.2-2.2,2.2-2.2Z"/><path class="cls-3" d="m3.99,9.8l.87-.87s.04-.1,0-.14l-.87-.87s-.04-.03-.07-.03-.05.01-.07.03l-.87.87s-.03.04-.03.07.01.05.03.07l.87.87s.04.03.07.03.05,0,.07-.03h0Zm-.07-1.68h0l.73.73-.73.73-.73-.73.73-.73Z"/><path class="cls-3" d="m3.92,8.08c-.05,0-.1-.04-.1-.1v-1.45c0-.05.04-.1.1-.1s.1.04.1.1v1.45c0,.05-.04.1-.1.1Z"/><path class="cls-3" d="m3.92,11.14c-.05,0-.1-.04-.1-.1v-1.31c0-.05.04-.1.1-.1s.1.04.1.1v1.31c0,.05-.04.1-.1.1Z"/><path class="cls-3" d="m6.26,8.96h-1.47c-.05,0-.1-.04-.1-.1s.04-.1.1-.1h1.47c.05,0,.1.04.1.1s-.04.1-.1.1Z"/><path class="cls-3" d="m3.05,8.96h-1.46c-.05,0-.1-.04-.1-.1s.04-.1.1-.1h1.46c.05,0,.1.04.1.1s-.04.1-.1.1Z"/><path class="cls-3" d="m11.32,8.88c0-1.36-1.1-2.46-2.46-2.46s-2.46,1.1-2.46,2.46,1.1,2.46,2.46,2.46,2.46-1.1,2.46-2.46h0Zm-.2,0h0c0,1.25-1.01,2.26-2.26,2.26s-2.26-1.01-2.26-2.26,1.01-2.26,2.26-2.26,2.26,1.01,2.26,2.26Z"/><path class="cls-3" d="m8.93,11.28l2.34-2.34s.04-.1,0-.14l-2.34-2.34s-.1-.04-.14,0l-2.34,2.34s-.04.1,0,.14l2.34,2.34s.04.03.07.03.05,0,.07-.03h0Zm-.07-4.61h0l2.2,2.2-2.2,2.2-2.2-2.2,2.2-2.2Z"/><path class="cls-3" d="m8.93,9.8l.87-.87s.04-.1,0-.14l-.87-.87s-.04-.03-.07-.03-.05.01-.07.03l-.87.87s-.03.04-.03.07.01.05.03.07l.87.87s.04.03.07.03.05,0,.07-.03h0Zm-.07-1.68h0l.73.73-.73.73-.73-.73.73-.73Z"/><path class="cls-3" d="m8.86,8.08c-.05,0-.1-.04-.1-.1v-1.45c0-.05.04-.1.1-.1s.1.04.1.1v1.45c0,.05-.04.1-.1.1Z"/><path class="cls-3" d="m8.86,11.14c-.05,0-.1-.04-.1-.1v-1.31c0-.05.04-.1.1-.1s.1.04.1.1v1.31c0,.05-.04.1-.1.1Z"/><path class="cls-3" d="m11.2,8.96h-1.47c-.05,0-.1-.04-.1-.1s.04-.1.1-.1h1.47c.05,0,.1.04.1.1s-.04.1-.1.1Z"/><path class="cls-3" d="m7.99,8.96h-1.46c-.05,0-.1-.04-.1-.1s.04-.1.1-.1h1.46c.05,0,.1.04.1.1s-.04.1-.1.1Z"/><path class="cls-3" d="m16.26,8.88c0-1.36-1.1-2.46-2.46-2.46s-2.46,1.1-2.46,2.46,1.1,2.46,2.46,2.46,2.46-1.1,2.46-2.46h0Zm-.2,0h0c0,1.25-1.01,2.26-2.26,2.26s-2.26-1.01-2.26-2.26,1.01-2.26,2.26-2.26,2.26,1.01,2.26,2.26Z"/><path class="cls-3" d="m13.87,11.28l2.34-2.34s.04-.1,0-.14l-2.34-2.34s-.1-.04-.14,0l-2.34,2.34s-.04.1,0,.14l2.34,2.34s.04.03.07.03.05,0,.07-.03h0Zm-.07-4.61h0l2.2,2.2-2.2,2.2-2.2-2.2,2.2-2.2Z"/><path class="cls-3" d="m13.87,9.8l.87-.87s.04-.1,0-.14l-.87-.87s-.04-.03-.07-.03-.05.01-.07.03l-.87.87s-.03.04-.03.07.01.05.03.07l.87.87s.04.03.07.03.05,0,.07-.03h0Zm-.07-1.68h0l.73.73-.73.73-.73-.73.73-.73Z"/><path class="cls-3" d="m13.8,8.08c-.05,0-.1-.04-.1-.1v-1.45c0-.05.04-.1.1-.1s.1.04.1.1v1.45c0,.05-.04.1-.1.1Z"/><path class="cls-3" d="m13.8,11.14c-.05,0-.1-.04-.1-.1v-1.31c0-.05.04-.1.1-.1s.1.04.1.1v1.31c0,.05-.04.1-.1.1Z"/><path class="cls-3" d="m12.93,8.96h-1.46c-.05,0-.1-.04-.1-.1s.04-.1.1-.1h1.46c.05,0,.1.04.1.1s-.04.1-.1.1Z"/><path class="cls-3" d="m1.45,13.81c0-1.36-1.1-2.46-2.46-2.46s-2.46,1.1-2.46,2.46,1.1,2.46,2.46,2.46,2.46-1.1,2.46-2.46h0Zm-.2,0h0c0,1.25-1.01,2.26-2.26,2.26s-2.26-1.01-2.26-2.26,1.01-2.26,2.26-2.26,2.26,1.01,2.26,2.26Z"/><path class="cls-3" d="m-.95,16.22l2.34-2.34s.04-.1,0-.14l-2.34-2.34s-.1-.04-.14,0l-2.34,2.34s-.04.1,0,.14l2.34,2.34s.04.03.07.03.05,0,.07-.03h0Zm-.07-4.61h0l2.2,2.2-2.2,2.2-2.2-2.2,2.2-2.2Z"/><path class="cls-3" d="m1.32,13.89H-.15c-.05,0-.1-.04-.1-.1s.04-.1.1-.1h1.47c.05,0,.1.04.1.1s-.04.1-.1.1Z"/><path class="cls-3" d="m6.39,13.81c0-1.36-1.1-2.46-2.46-2.46s-2.46,1.1-2.46,2.46,1.1,2.46,2.46,2.46,2.46-1.1,2.46-2.46h0Zm-.2,0h0c0,1.25-1.01,2.26-2.26,2.26s-2.26-1.01-2.26-2.26,1.01-2.26,2.26-2.26,2.26,1.01,2.26,2.26Z"/><path class="cls-3" d="m3.99,16.22l2.34-2.34s.04-.1,0-.14l-2.34-2.34s-.1-.04-.14,0l-2.34,2.34s-.04.1,0,.14l2.34,2.34s.04.03.07.03.05,0,.07-.03h0Zm-.07-4.61h0l2.2,2.2-2.2,2.2-2.2-2.2,2.2-2.2Z"/><path class="cls-3" d="m3.99,14.74l.87-.87s.04-.1,0-.14l-.87-.87s-.04-.03-.07-.03-.05.01-.07.03l-.87.87s-.03.04-.03.07.01.05.03.07l.87.87s.04.03.07.03.05,0,.07-.03h0Zm-.07-1.68h0l.73.73-.73.73-.73-.73.73-.73Z"/><path class="cls-3" d="m3.92,13.02c-.05,0-.1-.04-.1-.1v-1.45c0-.05.04-.1.1-.1s.1.04.1.1v1.45c0,.05-.04.1-.1.1Z"/><path class="cls-3" d="m3.92,16.07c-.05,0-.1-.04-.1-.1v-1.31c0-.05.04-.1.1-.1s.1.04.1.1v1.31c0,.05-.04.1-.1.1Z"/><path class="cls-3" d="m6.26,13.89h-1.47c-.05,0-.1-.04-.1-.1s.04-.1.1-.1h1.47c.05,0,.1.04.1.1s-.04.1-.1.1Z"/><path class="cls-3" d="m3.05,13.89h-1.46c-.05,0-.1-.04-.1-.1s.04-.1.1-.1h1.46c.05,0,.1.04.1.1s-.04.1-.1.1Z"/><path class="cls-3" d="m11.32,13.81c0-1.36-1.1-2.46-2.46-2.46s-2.46,1.1-2.46,2.46,1.1,2.46,2.46,2.46,2.46-1.1,2.46-2.46h0Zm-.2,0h0c0,1.25-1.01,2.26-2.26,2.26s-2.26-1.01-2.26-2.26,1.01-2.26,2.26-2.26,2.26,1.01,2.26,2.26Z"/><path class="cls-3" d="m8.93,16.22l2.34-2.34s.04-.1,0-.14l-2.34-2.34s-.1-.04-.14,0l-2.34,2.34s-.04.1,0,.14l2.34,2.34s.04.03.07.03.05,0,.07-.03h0Zm-.07-4.61h0l2.2,2.2-2.2,2.2-2.2-2.2,2.2-2.2Z"/><path class="cls-3" d="m8.93,14.74l.87-.87s.04-.1,0-.14l-.87-.87s-.04-.03-.07-.03-.05.01-.07.03l-.87.87s-.03.04-.03.07.01.05.03.07l.87.87s.04.03.07.03.05,0,.07-.03h0Zm-.07-1.68h0l.73.73-.73.73-.73-.73.73-.73Z"/><path class="cls-3" d="m8.86,13.02c-.05,0-.1-.04-.1-.1v-1.45c0-.05.04-.1.1-.1s.1.04.1.1v1.45c0,.05-.04.1-.1.1Z"/><path class="cls-3" d="m8.86,16.07c-.05,0-.1-.04-.1-.1v-1.31c0-.05.04-.1.1-.1s.1.04.1.1v1.31c0,.05-.04.1-.1.1Z"/><path class="cls-3" d="m11.2,13.89h-1.47c-.05,0-.1-.04-.1-.1s.04-.1.1-.1h1.47c.05,0,.1.04.1.1s-.04.1-.1.1Z"/><path class="cls-3" d="m7.99,13.89h-1.46c-.05,0-.1-.04-.1-.1s.04-.1.1-.1h1.46c.05,0,.1.04.1.1s-.04.1-.1.1Z"/><path class="cls-3" d="m16.26,13.81c0-1.36-1.1-2.46-2.46-2.46s-2.46,1.1-2.46,2.46,1.1,2.46,2.46,2.46,2.46-1.1,2.46-2.46h0Zm-.2,0h0c0,1.25-1.01,2.26-2.26,2.26s-2.26-1.01-2.26-2.26,1.01-2.26,2.26-2.26,2.26,1.01,2.26,2.26Z"/><path class="cls-3" d="m13.87,16.22l2.34-2.34s.04-.1,0-.14l-2.34-2.34s-.1-.04-.14,0l-2.34,2.34s-.04.1,0,.14l2.34,2.34s.04.03.07.03.05,0,.07-.03h0Zm-.07-4.61h0l2.2,2.2-2.2,2.2-2.2-2.2,2.2-2.2Z"/><path class="cls-3" d="m13.87,14.74l.87-.87s.04-.1,0-.14l-.87-.87s-.04-.03-.07-.03-.05.01-.07.03l-.87.87s-.03.04-.03.07.01.05.03.07l.87.87s.04.03.07.03.05,0,.07-.03h0Zm-.07-1.68h0l.73.73-.73.73-.73-.73.73-.73Z"/><path class="cls-3" d="m13.8,13.02c-.05,0-.1-.04-.1-.1v-1.45c0-.05.04-.1.1-.1s.1.04.1.1v1.45c0,.05-.04.1-.1.1Z"/><path class="cls-3" d="m13.8,16.07c-.05,0-.1-.04-.1-.1v-1.31c0-.05.04-.1.1-.1s.1.04.1.1v1.31c0,.05-.04.1-.1.1Z"/><path class="cls-3" d="m12.93,13.89h-1.46c-.05,0-.1-.04-.1-.1s.04-.1.1-.1h1.46c.05,0,.1.04.1.1s-.04.1-.1.1Z"/><path class="cls-3" d="m1.45,18.74c0-1.36-1.1-2.46-2.46-2.46s-2.46,1.1-2.46,2.46,1.1,2.46,2.46,2.46,2.46-1.1,2.46-2.46h0Zm-.2,0h0c0,1.25-1.01,2.26-2.26,2.26s-2.26-1.01-2.26-2.26,1.01-2.26,2.26-2.26,2.26,1.01,2.26,2.26Z"/><path class="cls-3" d="m-.95,21.15l2.34-2.34s.04-.1,0-.14l-2.34-2.34s-.1-.04-.14,0l-2.34,2.34s-.04.1,0,.14l2.34,2.34s.04.03.07.03.05,0,.07-.03h0Zm-.07-4.61h0l2.2,2.2-2.2,2.2-2.2-2.2,2.2-2.2Z"/><path class="cls-3" d="m1.32,18.83H-.15c-.05,0-.1-.04-.1-.1s.04-.1.1-.1h1.47c.05,0,.1.04.1.1s-.04.1-.1.1Z"/><path class="cls-3" d="m6.39,18.74c0-1.36-1.1-2.46-2.46-2.46s-2.46,1.1-2.46,2.46,1.1,2.46,2.46,2.46,2.46-1.1,2.46-2.46h0Zm-.2,0h0c0,1.25-1.01,2.26-2.26,2.26s-2.26-1.01-2.26-2.26,1.01-2.26,2.26-2.26,2.26,1.01,2.26,2.26Z"/><path class="cls-3" d="m3.99,21.15l2.34-2.34s.04-.1,0-.14l-2.34-2.34s-.1-.04-.14,0l-2.34,2.34s-.04.1,0,.14l2.34,2.34s.04.03.07.03.05,0,.07-.03h0Zm-.07-4.61h0l2.2,2.2-2.2,2.2-2.2-2.2,2.2-2.2Z"/><path class="cls-3" d="m3.99,19.67l.87-.87s.04-.1,0-.14l-.87-.87s-.04-.03-.07-.03-.05.01-.07.03l-.87.87s-.03.04-.03.07.01.05.03.07l.87.87s.04.03.07.03.05,0,.07-.03h0Zm-.07-1.68h0l.73.73-.73.73-.73-.73.73-.73Z"/><path class="cls-3" d="m3.92,17.95c-.05,0-.1-.04-.1-.1v-1.45c0-.05.04-.1.1-.1s.1.04.1.1v1.45c0,.05-.04.1-.1.1Z"/><path class="cls-3" d="m3.92,21c-.05,0-.1-.04-.1-.1v-1.31c0-.05.04-.1.1-.1s.1.04.1.1v1.31c0,.05-.04.1-.1.1Z"/><path class="cls-3" d="m6.26,18.83h-1.47c-.05,0-.1-.04-.1-.1s.04-.1.1-.1h1.47c.05,0,.1.04.1.1s-.04.1-.1.1Z"/><path class="cls-3" d="m3.05,18.83h-1.46c-.05,0-.1-.04-.1-.1s.04-.1.1-.1h1.46c.05,0,.1.04.1.1s-.04.1-.1.1Z"/><path class="cls-3" d="m11.32,18.74c0-1.36-1.1-2.46-2.46-2.46s-2.46,1.1-2.46,2.46,1.1,2.46,2.46,2.46,2.46-1.1,2.46-2.46h0Zm-.2,0h0c0,1.25-1.01,2.26-2.26,2.26s-2.26-1.01-2.26-2.26,1.01-2.26,2.26-2.26,2.26,1.01,2.26,2.26Z"/><path class="cls-3" d="m8.93,21.15l2.34-2.34s.04-.1,0-.14l-2.34-2.34s-.1-.04-.14,0l-2.34,2.34s-.04.1,0,.14l2.34,2.34s.04.03.07.03.05,0,.07-.03h0Zm-.07-4.61h0l2.2,2.2-2.2,2.2-2.2-2.2,2.2-2.2Z"/><path class="cls-3" d="m8.93,19.67l.87-.87s.04-.1,0-.14l-.87-.87s-.04-.03-.07-.03-.05.01-.07.03l-.87.87s-.03.04-.03.07.01.05.03.07l.87.87s.04.03.07.03.05,0,.07-.03h0Zm-.07-1.68h0l.73.73-.73.73-.73-.73.73-.73Z"/><path class="cls-3" d="m8.86,17.95c-.05,0-.1-.04-.1-.1v-1.45c0-.05.04-.1.1-.1s.1.04.1.1v1.45c0,.05-.04.1-.1.1Z"/><path class="cls-3" d="m8.86,21c-.05,0-.1-.04-.1-.1v-1.31c0-.05.04-.1.1-.1s.1.04.1.1v1.31c0,.05-.04.1-.1.1Z"/><path class="cls-3" d="m11.2,18.83h-1.47c-.05,0-.1-.04-.1-.1s.04-.1.1-.1h1.47c.05,0,.1.04.1.1s-.04.1-.1.1Z"/><path class="cls-3" d="m7.99,18.83h-1.46c-.05,0-.1-.04-.1-.1s.04-.1.1-.1h1.46c.05,0,.1.04.1.1s-.04.1-.1.1Z"/><path class="cls-3" d="m16.26,18.74c0-1.36-1.1-2.46-2.46-2.46s-2.46,1.1-2.46,2.46,1.1,2.46,2.46,2.46,2.46-1.1,2.46-2.46h0Zm-.2,0h0c0,1.25-1.01,2.26-2.26,2.26s-2.26-1.01-2.26-2.26,1.01-2.26,2.26-2.26,2.26,1.01,2.26,2.26Z"/><path class="cls-3" d="m13.87,21.15l2.34-2.34s.04-.1,0-.14l-2.34-2.34s-.1-.04-.14,0l-2.34,2.34s-.04.1,0,.14l2.34,2.34s.04.03.07.03.05,0,.07-.03h0Zm-.07-4.61h0l2.2,2.2-2.2,2.2-2.2-2.2,2.2-2.2Z"/><path class="cls-3" d="m13.87,19.67l.87-.87s.04-.1,0-.14l-.87-.87s-.04-.03-.07-.03-.05.01-.07.03l-.87.87s-.03.04-.03.07.01.05.03.07l.87.87s.04.03.07.03.05,0,.07-.03h0Zm-.07-1.68h0l.73.73-.73.73-.73-.73.73-.73Z"/><path class="cls-3" d="m13.8,17.95c-.05,0-.1-.04-.1-.1v-1.45c0-.05.04-.1.1-.1s.1.04.1.1v1.45c0,.05-.04.1-.1.1Z"/><path class="cls-3" d="m13.8,21c-.05,0-.1-.04-.1-.1v-1.31c0-.05.04-.1.1-.1s.1.04.1.1v1.31c0,.05-.04.1-.1.1Z"/><path class="cls-3" d="m12.93,18.83h-1.46c-.05,0-.1-.04-.1-.1s.04-.1.1-.1h1.46c.05,0,.1.04.1.1s-.04.1-.1.1Z"/><path class="cls-3" d="m1.45,23.68c0-1.36-1.1-2.46-2.46-2.46s-2.46,1.1-2.46,2.46,1.1,2.46,2.46,2.46,2.46-1.1,2.46-2.46h0Zm-.2,0h0c0,1.25-1.01,2.26-2.26,2.26s-2.26-1.01-2.26-2.26,1.01-2.26,2.26-2.26,2.26,1.01,2.26,2.26Z"/><path class="cls-3" d="m-.95,26.09l2.34-2.34s.04-.1,0-.14l-2.34-2.34s-.1-.04-.14,0l-2.34,2.34s-.04.1,0,.14l2.34,2.34s.04.03.07.03.05,0,.07-.03h0Zm-.07-4.61h0l2.2,2.2-2.2,2.2-2.2-2.2,2.2-2.2Z"/><path class="cls-3" d="m6.39,23.68c0-1.36-1.1-2.46-2.46-2.46s-2.46,1.1-2.46,2.46,1.1,2.46,2.46,2.46,2.46-1.1,2.46-2.46h0Zm-.2,0h0c0,1.25-1.01,2.26-2.26,2.26s-2.26-1.01-2.26-2.26,1.01-2.26,2.26-2.26,2.26,1.01,2.26,2.26Z"/><path class="cls-3" d="m3.99,26.09l2.34-2.34s.04-.1,0-.14l-2.34-2.34s-.1-.04-.14,0l-2.34,2.34s-.04.1,0,.14l2.34,2.34s.04.03.07.03.05,0,.07-.03h0Zm-.07-4.61h0l2.2,2.2-2.2,2.2-2.2-2.2,2.2-2.2Z"/><path class="cls-3" d="m3.99,24.6l.87-.87s.04-.1,0-.14l-.87-.87s-.04-.03-.07-.03-.05.01-.07.03l-.87.87s-.03.04-.03.07.01.05.03.07l.87.87s.04.03.07.03.05,0,.07-.03h0Zm-.07-1.68h0l.73.73-.73.73-.73-.73.73-.73Z"/><path class="cls-3" d="m3.92,22.89c-.05,0-.1-.04-.1-.1v-1.45c0-.05.04-.1.1-.1s.1.04.1.1v1.45c0,.05-.04.1-.1.1Z"/><path class="cls-3" d="m11.32,23.68c0-1.36-1.1-2.46-2.46-2.46s-2.46,1.1-2.46,2.46,1.1,2.46,2.46,2.46,2.46-1.1,2.46-2.46h0Zm-.2,0h0c0,1.25-1.01,2.26-2.26,2.26s-2.26-1.01-2.26-2.26,1.01-2.26,2.26-2.26,2.26,1.01,2.26,2.26Z"/><path class="cls-3" d="m8.93,26.09l2.34-2.34s.04-.1,0-.14l-2.34-2.34s-.1-.04-.14,0l-2.34,2.34s-.04.1,0,.14l2.34,2.34s.04.03.07.03.05,0,.07-.03h0Zm-.07-4.61h0l2.2,2.2-2.2,2.2-2.2-2.2,2.2-2.2Z"/><path class="cls-3" d="m8.93,24.6l.87-.87s.04-.1,0-.14l-.87-.87s-.04-.03-.07-.03-.05.01-.07.03l-.87.87s-.03.04-.03.07.01.05.03.07l.87.87s.04.03.07.03.05,0,.07-.03h0Zm-.07-1.68h0l.73.73-.73.73-.73-.73.73-.73Z"/><path class="cls-3" d="m8.86,22.89c-.05,0-.1-.04-.1-.1v-1.45c0-.05.04-.1.1-.1s.1.04.1.1v1.45c0,.05-.04.1-.1.1Z"/><path class="cls-3" d="m16.26,23.68c0-1.36-1.1-2.46-2.46-2.46s-2.46,1.1-2.46,2.46,1.1,2.46,2.46,2.46,2.46-1.1,2.46-2.46h0Zm-.2,0h0c0,1.25-1.01,2.26-2.26,2.26s-2.26-1.01-2.26-2.26,1.01-2.26,2.26-2.26,2.26,1.01,2.26,2.26Z"/><path class="cls-3" d="m13.87,26.09l2.34-2.34s.04-.1,0-.14l-2.34-2.34s-.1-.04-.14,0l-2.34,2.34s-.04.1,0,.14l2.34,2.34s.04.03.07.03.05,0,.07-.03h0Zm-.07-4.61h0l2.2,2.2-2.2,2.2-2.2-2.2,2.2-2.2Z"/><path class="cls-3" d="m13.87,24.6l.87-.87s.04-.1,0-.14l-.87-.87s-.04-.03-.07-.03-.05.01-.07.03l-.87.87s-.03.04-.03.07.01.05.03.07l.87.87s.04.03.07.03.05,0,.07-.03h0Zm-.07-1.68h0l.73.73-.73.73-.73-.73.73-.73Z"/><path class="cls-3" d="m13.8,22.89c-.05,0-.1-.04-.1-.1v-1.45c0-.05.04-.1.1-.1s.1.04.1.1v1.45c0,.05-.04.1-.1.1Z"/></g></svg>